<?xml version="1.0" encoding="utf-8"?>
<!-- Generator: Adobe Illustrator 19.2.1, SVG Export Plug-In . SVG Version: 6.00 Build 0)  -->
<svg version="1.1" id="Layer_1" xmlns="http://www.w3.org/2000/svg" xmlns:xlink="http://www.w3.org/1999/xlink" x="0px" y="0px"
	 viewBox="0 0 210 88" style="enable-background:new 0 0 210 88;" xml:space="preserve">
<style type="text/css">
	.st0{fill:#E11837;}
	.st1{clip-path:url(#SVGID_2_);fill:url(#SVGID_3_);}
</style>
<path d="M32.2,34.5c0,3.6-0.9,7.4-2.8,10.2c-1.9,2.8-4.8,4.7-8.9,4.7c-4.3,0-7.3-1.8-9.3-4.6c-2-2.8-3-6.6-3-10.4
	c0-3.7,0.9-7.4,2.8-10.2c1.9-2.8,4.8-4.7,8.9-4.7c4.2,0,7.2,1.9,9.2,4.7C31.3,26.9,32.2,30.7,32.2,34.5 M33.7,20.5l-0.1,0.1
	L33.7,20.5C30.6,17.1,26,15,20.3,15c-5.7,0-10.3,2.1-13.4,5.6C3.7,24.1,2,28.9,2,34.4C2,40,3.7,44.8,6.9,48.3
	c3.2,3.5,7.8,5.5,13.6,5.5h0h0c5.8,0,10.3-2.1,13.4-5.6c3.1-3.5,4.7-8.4,4.7-13.9C38.7,28.8,36.9,24,33.7,20.5"/>
<path d="M65.5,33.7l-0.8-6.5c0-0.1-0.1-0.2-0.1-0.2c-3-1.1-5.8-1.9-9-1.9c-4.4,0-7.9,1.5-10.2,4.1c-2.3,2.6-3.6,6.2-3.6,10.5
	c0,4.1,1.1,7.6,3.3,10.1c2.2,2.5,5.5,4,9.8,4h0c5.6,0,8.8-2.5,10.4-6.6c0-0.1,0-0.1,0-0.2c0-0.1-0.1-0.1-0.2-0.1l-4.2-1.2
	c-0.1,0-0.3,0-0.3,0.2c-0.8,2.3-2.9,3.7-5.8,3.7c-1.2,0-2.3-0.4-3.4-1c-3.1-1.8-3.7-5.8-3.7-9.3c0-2.4,0.5-5,1.8-6.9
	c1.2-1.9,3.1-3.2,5.9-3.2c1.7,0,3.3,0.4,4.8,1.2l0.5,3.7c0,0.1,0.1,0.2,0.3,0.2l4.2-0.4c0.1,0,0.1,0,0.2-0.1
	C65.5,33.8,65.5,33.7,65.5,33.7"/>
<path d="M83.5,26.2c0,0-0.1-0.1-0.2-0.1h-5.1v-8.6c0-0.1,0-0.1-0.1-0.2c0,0-0.1-0.1-0.2-0.1l-5.3,0.8c-0.1,0-0.1,0-0.2,0.1
	c-0.1,0.1-0.1,0.1-0.1,0.2v7.8h-3.4c-0.1,0-0.1,0-0.2,0.1c0,0.1-0.1,0.1-0.1,0.2V30c0,0.1,0,0.1,0.1,0.2c0,0,0.1,0.1,0.2,0.1h3.8
	l-0.4,1.6l0,0.1V53c0,0.1,0,0.1,0.1,0.2c0,0,0.1,0.1,0.2,0.1H78c0.1,0,0.1,0,0.2-0.1c0,0,0.1-0.1,0.1-0.2V30.3h4.9
	c0.1,0,0.1,0,0.2-0.1c0.1,0,0.1-0.1,0.1-0.2l0.2-3.7C83.6,26.3,83.5,26.2,83.5,26.2"/>
<path d="M126.6,26.2c-0.1,0-0.1-0.1-0.2-0.1h-5.1v-8.6c0-0.1,0-0.1-0.1-0.2c0,0-0.1-0.1-0.2-0.1l-5.3,0.8c-0.1,0-0.1,0-0.2,0.1
	c0,0.1-0.1,0.1-0.1,0.2v7.8h-3.4c-0.1,0-0.1,0-0.2,0.1c0,0.1-0.1,0.1-0.1,0.2V30c0,0.1,0,0.1,0.1,0.2c0,0,0.1,0.1,0.2,0.1h3.8
	l-0.4,1.6l0,0.1V53c0,0.1,0,0.1,0.1,0.2c0.1,0,0.1,0.1,0.2,0.1h5.3c0.1,0,0.1,0,0.2-0.1c0,0,0.1-0.1,0.1-0.2V30.3h4.8
	c0.1,0,0.1,0,0.2-0.1c0,0,0.1-0.1,0.1-0.2l0.2-3.7C126.6,26.3,126.6,26.2,126.6,26.2"/>
<path d="M97.8,29.2c1.3,0,2.7,0.4,3.7,1.2c2,1.5,2.4,3.5,2.5,6H91.4c0.2-1.8,0.8-3.5,1.8-4.9C94.2,30.1,95.6,29.2,97.8,29.2
	 M108.9,32.1c-0.9-2.3-2.4-4.3-5-5.6c-1.8-1-4-1.4-6.1-1.4c-4.2,0-7.4,1.7-9.5,4.4c-2.1,2.7-3.1,6.3-3.1,10.2c0,0.4,0,0.8,0,1.3v0
	c0.2,3.7,1.5,6.9,3.7,9.2c2.2,2.3,5.4,3.7,9.4,3.7h0c5.6,0,8.8-2.5,10.4-6.6c0-0.1,0-0.1,0-0.2c0-0.1-0.1-0.1-0.2-0.1l-4.2-1.2
	c-0.1,0-0.2,0-0.3,0.2c-0.8,2.3-2.9,3.7-5.8,3.7c-1.2,0-2.3-0.4-3.4-1c-2.6-1.6-3.4-4.7-3.6-7.7c0,0,0-0.4,0-0.7h18.5
	c0.1,0,0.1,0,0.2-0.1C110,40.1,110,40,110,40C109.9,37.3,109.7,34.4,108.9,32.1"/>
<path class="st0" d="M194.6,42.5c0.8,8.1-3.6,16.2-11.5,19.7c-1.9,0.8-3.8,1.3-5.7,1.5c-8.1,0.8-16.2-3.6-19.6-11.5
	c-0.8-1.8-1.2-3.6-1.4-5.4c0,0-0.1-1.2-0.1-1.2s-3.2-0.6-2.9,2.3c0.3,1.9,0.8,3.8,1.6,5.6c4,9.2,13.4,14.4,22.8,13.4
	c2.2-0.2,4.5-0.8,6.6-1.7c9.2-4,14.4-13.4,13.4-22.9c-0.2-2.2-0.8-4.5-1.7-6.6c-4-9.2-13.4-14.4-22.9-13.4c-2.2,0.2-4.4,0.8-6.6,1.7
	c-2.1,0.9-3.9,2-5.6,3.4l-1,0.9c0,0,1.3,3,3.4,1.3c1.4-1.1,2.8-2,4.4-2.7c1.9-0.8,3.8-1.3,5.7-1.5c8.1-0.8,16.2,3.6,19.7,11.5
	C193.9,38.7,194.4,40.6,194.6,42.5 M167.7,21c1.7-0.6,3.5-0.9,5.2-1.1c10.4-1.1,20.8,4.6,25.2,14.8c1,2.4,1.7,4.8,1.9,7.3
	c1.1,10.4-4.6,20.8-14.8,25.2c-2.4,1-4.8,1.6-7.3,1.9c-10.4,1.1-20.8-4.6-25.2-14.8c-1-2.4-1.7-4.9-1.9-7.3c-0.4-3.4,0-6.8,1-10
	l0.4-1.3c0,0-2.6-1.7-3.5,0.9c-1,3.4-1.4,7-1,10.7c0.3,2.8,1,5.5,2.1,8.2c4.9,11.4,16.6,17.9,28.4,16.7c2.8-0.3,5.5-1,8.2-2.1
	c11.4-4.9,17.9-16.6,16.7-28.4c-0.3-2.8-1-5.5-2.1-8.2C196,22,184.4,15.6,172.6,16.8c-2.2,0.2-4.3,0.7-6.5,1.5c0,0-1.2,0.4-1.2,0.4
	S165.1,21.8,167.7,21 M176.7,11.4l-1.3-0.1c0,0-1.1,3.1,1.8,3.2c10.9,0.7,21.1,7.3,25.7,18c1.2,2.9,2,5.9,2.3,8.8
	c1.3,12.6-5.6,25.2-17.9,30.5c-2.9,1.2-5.9,2-8.8,2.3c-12.7,1.3-25.2-5.6-30.5-17.9c-1.2-2.9-2-5.9-2.3-8.8
	c-0.9-8.3,1.8-16.6,7.3-22.8l0.9-1c0,0-1.7-2.7-3.6-0.7c-5.8,6.8-8.6,15.7-7.7,24.7c0.3,3.3,1.2,6.6,2.6,9.8
	c5.9,13.6,19.7,21.2,33.7,19.8c3.3-0.3,6.6-1.2,9.7-2.6c13.6-5.9,21.2-19.8,19.8-33.7c-0.3-3.3-1.2-6.6-2.5-9.8
	C200.6,19.3,189,11.9,176.7,11.4"/>
<g>
	<g>
		<defs>
			<path id="SVGID_1_" d="M41.2,60.2v12.9h1.7v-5.6h5.3v-1.4h-5.3v-4.5h6.2v-1.4H41.2z M52.5,73.1h1.7V60.2h-1.7V73.1z M67.5,60.2
				v9.1c0,0.1,0,0.3,0,0.4c0,0.1,0,0.3,0,0.5l-7.5-9.7c0-0.1-0.1-0.1-0.1-0.1c0,0-0.1-0.1-0.1-0.1c0,0-0.1,0-0.1,0
				c-0.1,0-0.1,0-0.2,0h-0.9v12.9h1.5v-9.2c0-0.1,0-0.3,0-0.4c0-0.1,0-0.3,0-0.4l7.5,9.7c0.1,0.1,0.2,0.2,0.3,0.2
				c0.1,0,0.2,0.1,0.3,0.1h0.9V60.2H67.5z M77.5,63c0.1-0.3,0.3-0.7,0.4-1.2c0.1,0.2,0.1,0.5,0.2,0.7c0.1,0.2,0.1,0.4,0.2,0.5l2,5.3
				h-4.8L77.5,63z M77,60.2l-5.2,12.9h1.4c0.1,0,0.3,0,0.4-0.1c0.1-0.1,0.2-0.2,0.2-0.3l1.2-3.1h5.8l1.2,3.1c0,0.1,0.1,0.2,0.2,0.3
				c0.1,0.1,0.2,0.1,0.4,0.1h1.4l-5.2-12.9L77,60.2L77,60.2z M95.6,60.2v9.1c0,0.1,0,0.3,0,0.4c0,0.1,0,0.3,0,0.5l-7.5-9.7
				c0-0.1-0.1-0.1-0.1-0.1c0,0-0.1-0.1-0.1-0.1c0,0-0.1,0-0.1,0c-0.1,0-0.1,0-0.2,0h-0.9v12.9h1.5v-9.2c0-0.1,0-0.3,0-0.4
				c0-0.1,0-0.3,0-0.4l7.5,9.7c0.1,0.1,0.2,0.2,0.3,0.2c0.1,0,0.2,0.1,0.3,0.1h0.9V60.2H95.6z M114.7,60.2v12.9h8l0-1.4h-6.2v-4.4h5
				v-1.4h-5v-4.3h6.2v-1.4L114.7,60.2z M104.5,60.5c-0.8,0.3-1.4,0.8-2,1.4c-0.6,0.6-1,1.3-1.3,2.1c-0.3,0.8-0.5,1.7-0.5,2.7
				s0.1,1.9,0.4,2.7c0.3,0.8,0.7,1.5,1.2,2.1c0.5,0.6,1.2,1,1.9,1.4c0.8,0.3,1.6,0.5,2.5,0.5c1.1,0,2-0.2,2.7-0.5
				c0.8-0.3,1.4-0.8,1.9-1.4l-0.7-0.7c-0.1-0.1-0.2-0.1-0.3-0.1c-0.1,0-0.2,0-0.3,0.1c-0.2,0.2-0.4,0.4-0.7,0.5
				c-0.2,0.1-0.5,0.3-0.7,0.4c-0.3,0.1-0.5,0.2-0.9,0.2c-0.3,0-0.7,0.1-1,0.1c-0.6,0-1.2-0.1-1.8-0.3c-0.5-0.2-1-0.6-1.4-1
				c-0.4-0.4-0.7-1-0.9-1.6c-0.2-0.6-0.3-1.3-0.3-2.2c0-0.8,0.1-1.5,0.3-2.1c0.2-0.6,0.5-1.2,0.9-1.6c0.4-0.4,0.9-0.8,1.4-1
				c0.6-0.2,1.2-0.3,1.8-0.3c0.6,0,1,0.1,1.4,0.2c0.4,0.1,0.7,0.2,0.9,0.4c0.3,0.1,0.5,0.3,0.6,0.4c0.2,0.1,0.3,0.2,0.4,0.2
				c0.1,0,0.2,0,0.2-0.1c0.1,0,0.1-0.1,0.1-0.1l0.6-0.8c-0.5-0.5-1.2-0.9-1.9-1.2c-0.7-0.3-1.5-0.4-2.4-0.4
				C106.1,60,105.3,60.2,104.5,60.5"/>
		</defs>
		<clipPath id="SVGID_2_">
			<use xlink:href="#SVGID_1_"  style="overflow:visible;"/>
		</clipPath>
		
			<linearGradient id="SVGID_3_" gradientUnits="userSpaceOnUse" x1="-175.3763" y1="94.9335" x2="-173.7903" y2="94.9335" gradientTransform="matrix(51.3643 0 0 51.3643 9049.2666 -4809.5776)">
			<stop  offset="0" style="stop-color:#CF2026"/>
			<stop  offset="1" style="stop-color:#EE2524"/>
		</linearGradient>
		<rect x="41.2" y="60" class="st1" width="81.5" height="13.2"/>
	</g>
</g>
</svg>
